# ProBuilder 5.2.2
# https://unity3d.com/unity/features/worldbuilding/probuilder
# 2/28/2024 1:25:25 AM

mtllib ./Cube.mtl
o Cube

g Cube
v 1.05 -0.55 3.75
v -1.05 -0.55 3.75
v 1.05 0.55 3.75
v -1.05 0.55 3.75
v -1.25 -0.55 3.55
v -1.25 -0.55 -3.55
v -1.25 0.55 3.55
v -1.25 0.55 -3.55
v -1.05 -0.55 -3.75
v 1.05 -0.55 -3.75
v -1.05 0.55 -3.75
v 1.05 0.55 -3.75
v 1.25 -0.55 -3.55
v 1.25 -0.55 3.55
v 1.25 0.55 -3.55
v 1.25 0.55 3.55
v 1.05 0.75 3.55
v -1.05 0.75 3.55
v 1.05 0.75 -3.55
v -1.05 0.75 -3.55
v 1.05 -0.75 -3.55
v -1.05 -0.75 -3.55
v 1.05 -0.75 3.55
v -1.05 -0.75 3.55

vt 1.05 -0.55
vt -1.05 -0.55
vt 1.05 0.55
vt -1.05 0.55
vt 3.55 -0.55
vt -3.55 -0.55
vt 3.55 0.55
vt -3.55 0.55
vt -1.05 3.55
vt 1.05 3.55
vt -1.05 -3.55
vt 1.05 -3.55
vt 1.05 2.262742
vt -1.05 2.262742
vt 1.05 1.979899
vt -1.05 1.979899
vt -1.626346 -0.55
vt -1.626346 0.55
vt -1.909188 -0.55
vt -1.909188 0.55
vt 1.909188 -0.55
vt 1.909188 0.55
vt 1.626346 -0.55
vt 1.626346 0.55
vt -1.05 -2.262742
vt 1.05 -2.262742
vt -1.05 -1.979899
vt 1.05 -1.979899
vt -0.4949749 3.55
vt -0.4949749 -3.55
vt -0.2121322 3.55
vt -0.2121322 -3.55
vt 0.4949749 -3.55
vt 0.4949749 3.55
vt 0.2121322 -3.55
vt 0.2121322 3.55
vt -1.909188 1.510519
vt -1.767767 1.26557
vt -1.626346 1.510519
vt 1.909188 1.510519
vt 1.767767 1.26557
vt 1.626346 1.510519
vt -1.626346 -1.510519
vt -1.909188 -1.510519
vt -1.767767 -1.26557
vt 1.909188 -1.510519
vt 1.626346 -1.510519
vt 1.767767 -1.26557

vn 0 0 1
vn -1 0 0
vn 0 0 -1
vn 1 0 0
vn 0 1 0
vn 0 -1 0
vn 0 -0.7071069 -0.7071067
vn -0.7071068 0 -0.7071068
vn 0.7071068 0 -0.7071068
vn 0 0.7071069 -0.7071067
vn 0 0.7071069 0.7071067
vn 0.7071066 0.7071069 0
vn -0.7071066 0.7071069 0
vn 0.7071066 -0.7071069 0
vn 0.7071068 0 0.7071068
vn 0 -0.7071069 0.7071067
vn -0.7071068 0 0.7071068
vn -0.7071066 -0.7071069 0
vn -0.5773503 -0.5773504 -0.5773503
vn 0.5773503 -0.5773504 -0.5773503
vn -0.5773503 0.5773504 -0.5773503
vn 0.5773503 0.5773504 -0.5773503
vn -0.5773503 0.5773504 0.5773503
vn 0.5773503 0.5773504 0.5773503
vn 0.5773503 -0.5773504 0.5773503
vn -0.5773503 -0.5773504 0.5773503

usemtl ProBuilderDefault
f 9/37/19 22/38/19 6/39/19
f 13/42/20 21/41/20 10/40/20
f 20/45/21 11/44/21 8/43/21
f 19/48/22 15/47/22 12/46/22
f 4/46/23 18/48/23 7/47/23
f 16/43/24 17/45/24 3/44/24
f 1/37/25 23/38/25 14/39/25
f 5/42/26 24/41/26 2/40/26
f 4/4/1 2/2/1 1/1/1
f 1/1/1 3/3/1 4/4/1
f 8/8/2 6/6/2 5/5/2
f 5/5/2 7/7/2 8/8/2
f 12/4/3 10/2/3 9/1/3
f 9/1/3 11/3/3 12/4/3
f 16/8/4 14/6/4 13/5/4
f 13/5/4 15/7/4 16/8/4
f 20/12/5 18/10/5 17/9/5
f 17/9/5 19/11/5 20/12/5
f 24/9/6 22/11/6 21/12/6
f 21/12/6 23/10/6 24/9/6
f 22/15/7 9/13/7 10/14/7
f 10/14/7 21/16/7 22/15/7
f 9/19/8 6/17/8 8/18/8
f 8/18/8 11/20/8 9/19/8
f 13/23/9 10/21/9 12/22/9
f 12/22/9 15/24/9 13/23/9
f 19/27/10 12/25/10 11/26/10
f 11/26/10 20/28/10 19/27/10
f 18/27/11 4/25/11 3/26/11
f 3/26/11 17/28/11 18/27/11
f 17/31/12 16/29/12 15/30/12
f 15/30/12 19/32/12 17/31/12
f 20/35/13 8/33/13 7/34/13
f 7/34/13 18/36/13 20/35/13
f 21/35/14 13/33/14 14/34/14
f 14/34/14 23/36/14 21/35/14
f 16/18/15 3/20/15 1/19/15
f 1/19/15 14/17/15 16/18/15
f 23/15/16 1/13/16 2/14/16
f 2/14/16 24/16/16 23/15/16
f 5/23/17 2/21/17 4/22/17
f 4/22/17 7/24/17 5/23/17
f 24/31/18 5/29/18 6/30/18
f 6/30/18 22/32/18 24/31/18

